<?xml version="1.0" encoding="UTF-8"?>
<svg id="Layer_1" data-name="Layer 1" xmlns="http://www.w3.org/2000/svg" xmlns:xlink="http://www.w3.org/1999/xlink" viewBox="0 0 300 300">
  <defs>
    <style>
      .cls-1 {
        fill: url(#radial-gradient);
      }

      .cls-2 {
        fill: #fff;
      }
    </style>
    <radialGradient id="radial-gradient" cx="92.66" cy="194.93" fx="92.66" fy="194.93" r="223.38" gradientTransform="translate(-107.92 100.14) rotate(-40.02) scale(1 1.03)" gradientUnits="userSpaceOnUse">
      <stop offset="0" stop-color="#06001c"/>
      <stop offset=".6" stop-color="#100049"/>
      <stop offset="1" stop-color="#1a0077"/>
    </radialGradient>
  </defs>
  <rect class="cls-1" width="300" height="300"/>
  <g>
    <path class="cls-2" d="M81.45,192.43c-.99,0-1.75-.29-2.28-.87-.54-.58-.81-1.32-.81-2.22v-87.86c0-.89.27-1.63.81-2.22.54-.58,1.3-.87,2.28-.87h7.12c.89,0,1.63.29,2.22.87.58.58.87,1.32.87,2.22v79.26h44.6c.98,0,1.77.29,2.35.87.58.58.87,1.37.87,2.35v5.37c0,.9-.29,1.63-.87,2.22-.58.58-1.37.87-2.35.87h-54.81Z"/>
    <path class="cls-2" d="M173.2,192.43c-.99,0-1.75-.29-2.28-.87-.54-.58-.81-1.32-.81-2.22v-87.73c0-.98.27-1.77.81-2.35.54-.58,1.3-.87,2.28-.87h34.12c6.63,0,12.38,1.07,17.26,3.22,4.88,2.15,8.67,5.35,11.35,9.61,2.69,4.25,4.03,9.56,4.03,15.92s-1.34,11.64-4.03,15.85c-2.69,4.21-6.47,7.39-11.35,9.54-4.88,2.15-10.64,3.22-17.26,3.22h-23.78v33.59c0,.9-.29,1.63-.87,2.22-.58.58-1.37.87-2.35.87h-7.12ZM183.41,144.47h23.24c6.63,0,11.6-1.48,14.91-4.43,3.31-2.96,4.97-7.25,4.97-12.9s-1.61-9.85-4.84-12.9c-3.22-3.04-8.24-4.57-15.05-4.57h-23.24v34.79Z"/>
  </g>
</svg>